OpenSim_Sub09_CSBaseline_RCS.mot
version=1
nRows=66
nColumns=11
inDegrees=no
endheader
time	Top_Thigh	Med_Thigh	Bot_Thigh	Top_Shank	2nd_Top_Shank	2nd_Bot_Shank	Bot_Shank	BNOx	BNOy	BNOZ
43.80000000	2040.05914422	2044.61762495	1764.16294401	1316.61148004	1474.09746405	1317.46417961	1318.88580237	360.36046242	-60.64367362	-127.81291149
43.81000000	2042.31908356	2043.22451769	1762.41272059	1316.55149039	1472.71297149	1317.08508226	1318.76923992	351.33696516	-60.22122854	-119.06350209
43.82000000	2045.22636851	2041.56867322	1761.05616882	1316.63740402	1471.93471355	1316.65289465	1318.52659400	343.44003451	-60.03091635	-111.40180204
43.83000000	2048.79704003	2039.63593327	1760.16553520	1316.88915578	1471.86649140	1316.16051382	1318.14408564	337.32747421	-60.10888836	-105.43120602
43.84000000	2053.03353446	2037.42612676	1759.81328119	1317.32103232	1472.59881851	1315.60365943	1317.61168103	333.59255464	-60.48581862	-101.69968712
43.85000000	2057.79783886	2035.08348140	1760.07408769	1317.88901044	1474.08503166	1315.00719087	1316.95800989	332.16232857	-61.13583609	-100.18306735
43.86000000	2062.86908280	2032.83741241	1761.02394490	1318.51466723	1476.19754067	1314.41315844	1316.23451136	332.57081614	-61.99971113	-100.51963022
43.87000000	2068.02532494	2030.91843603	1762.73885996	1319.11913518	1478.80770942	1313.86383459	1315.49291939	334.34695760	-63.01778294	-102.34329663
43.88000000	2073.04462391	2029.55706852	1765.29484002	1319.62354678	1481.78690177	1313.40149182	1314.78496791	337.01969321	-64.13039074	-105.28798747
43.89000000	2077.70503837	2028.98382614	1768.76789221	1319.94903452	1485.00648160	1313.06840259	1314.16239087	340.11796322	-65.27787373	-108.98762364
43.90000000	2081.78462697	2029.42922513	1773.23402367	1320.01673089	1488.33781276	1312.90683938	1313.67692221	343.17070789	-66.40057112	-113.07612603
43.91000000	2085.06144834	2031.12378176	1778.76924154	1319.74776837	1491.65225914	1312.95907466	1313.38029588	345.70686746	-67.43882212	-117.18741553
43.92000000	2087.31356115	2034.29801228	1785.44955295	1319.06327944	1494.82118460	1313.26738090	1313.32424582	347.25538219	-68.33296594	-120.95541305
43.93000000	2088.31902403	2039.18243294	1793.35096505	1317.88439661	1497.71595300	1313.87403058	1313.56050597	347.34519234	-69.02334178	-124.01403948
43.94000000	2087.85589563	2046.00756000	1802.54948498	1316.13225235	1500.20792823	1314.82129617	1314.14081027	345.50523815	-69.45028886	-125.99721570
43.95000000	2085.70223460	2055.00390970	1813.12111987	1313.72797915	1502.16847414	1316.15145014	1315.11689267	341.26445989	-69.55414639	-126.53886262
43.96000000	2081.63609959	2066.40199831	1825.14187686	1310.59270951	1503.46895461	1317.90676497	1316.54048711	334.15179780	-69.27525357	-125.27290113
43.97000000	2075.43554924	2080.43234208	1838.68776309	1306.64757590	1503.98073351	1320.12951314	1318.46332754	323.69619214	-68.55394961	-121.83325212
43.98000000	2066.87864221	2097.32545726	1853.83478569	1301.81371083	1503.57517470	1322.86196711	1320.93714789	309.42658316	-67.33057372	-115.85383649
43.99000000	2055.74343714	2117.31186010	1870.65895182	1296.01224676	1502.12364205	1326.14639936	1324.01368211	290.87191111	-65.54546511	-106.96857514
44.00000000	2041.80799267	2140.62206687	1889.23626860	1289.16431620	1499.49749944	1330.02508237	1327.74466415	267.56111626	-63.13896298	-94.81138895
44.01000000	2024.85036746	2167.48659380	1909.64274318	1281.19105163	1495.56811072	1334.54028860	1332.18182794	239.02313884	-60.05140655	-79.01619883
44.02000000	2004.64862015	2198.13595717	1931.95438269	1272.01358554	1490.20683978	1339.73429054	1337.37690743	204.78691912	-56.22313503	-59.21692567
44.03000000	1980.98080938	2232.80067321	1956.24719427	1261.55305041	1483.28505048	1345.64936065	1343.38163656	164.38139735	-51.59448762	-35.04749035
44.04000000	1953.62499382	2271.71125820	1982.59718506	1249.73057873	1474.67410669	1352.32777141	1350.24774928	117.33551379	-46.10580353	-6.14181379
44.05000000	1922.35923209	2315.09822837	2011.08036220	1236.46730300	1464.24537228	1359.81179529	1358.02697952	63.17820867	-39.69742197	27.86618314
44.06000000	1886.96158286	2363.19209998	2041.77273283	1221.68435569	1451.87021112	1368.14370477	1366.77106124	1.43842227	-32.30968215	67.34257952
44.07000000	1847.21010477	2416.22338930	2074.75030409	1205.30286930	1437.41998707	1377.36577231	1376.53172837	-68.35490517	-23.88292328	112.65345448
44.08000000	1802.88285646	2474.42261256	2110.08908311	1187.24397632	1420.76606401	1387.52027040	1387.36071486	-146.67283339	-14.35748457	164.16488711
44.09000000	1753.75789659	2538.02028603	2147.86507703	1167.42880923	1401.77980580	1398.64947151	1399.30975465	-233.98642215	-3.67370522	222.24295653
44.10000000	1699.61328379	2607.24692596	2188.15429300	1145.77850051	1380.33257632	1410.79564811	1412.43058169	-330.76673118	8.22807556	287.25374182
44.11000000	1640.22707672	2682.33304861	2231.03273814	1122.21418267	1356.29573942	1424.00107268	1426.77492991	-437.48482023	21.40751856	359.56332211
44.12000000	1575.37733403	2763.50917022	2276.57641961	1096.65698818	1329.54065900	1438.30801768	1442.39453326	-554.61174906	35.92428456	439.53777650
44.13000000	1504.84211436	2851.00580705	2324.86134453	1069.02804953	1299.93869890	1453.75875560	1459.34112568	-682.61857740	51.83803436	527.54318408
44.14000000	1428.39947636	2945.05347536	2375.96352005	1039.24849922	1267.36122300	1470.39555890	1477.66644112	-821.97636500	69.20842876	623.94562398
44.15000000	1345.82747868	3045.88269140	2429.95895330	1007.23946972	1231.67959517	1488.26070006	1497.42221352	-973.15617162	88.09512854	729.11117528
44.16000000	1256.90417996	3153.72397142	2486.92365143	972.92209353	1192.76517929	1507.39645156	1518.66017682	-1136.62905699	108.55779450	843.40591711
44.17000000	1161.40763885	3268.80783168	2546.93362157	936.21750313	1150.48933920	1527.84508586	1541.43206497	-1312.86608086	130.65608742	967.19592855
44.18000000	1059.11591400	3391.36478843	2610.06487086	897.04683101	1104.72343880	1549.64887545	1565.78961191	-1502.33830299	154.44966810	1100.84728873
44.19000000	949.80706406	3521.62535793	2676.39340644	855.33120967	1055.33884194	1572.85009279	1591.78455157	-1705.51678311	179.99819733	1244.72607674
44.20000000	833.25914767	3659.82005643	2745.99523545	810.99177158	1002.20691250	1597.49101036	1619.46861791	-1922.87258097	207.36133589	1399.19837168
44.21000000	709.25022348	3806.17940018	2818.94636503	763.94964923	945.19901434	1623.61390063	1648.89354487	-2154.87675632	236.59874460	1564.63025267
44.22000000	577.55835014	3960.93390544	2895.32280231	714.12597512	884.18651133	1651.26103608	1680.11106639	-2402.00036890	267.77008422	1741.38779882
44.23000000	437.96158629	4124.31408846	2975.20055443	661.44188173	819.04076734	1680.47468918	1713.17291642	-2664.71447847	300.93501556	1929.83708921
44.24000000	290.23799059	4296.55046549	3058.65562854	605.81850155	749.63314625	1711.29713240	1748.13082889	-2943.49014477	336.15319940	2130.34420297
44.25000000	134.16562168	4477.87355280	3145.76403177	547.17696706	675.83501192	1743.77063822	1785.03653775	-3238.79842754	373.48429654	2343.27521919
44.26000000	-30.47746179	4668.51386663	3236.60177125	485.43841076	597.51772821	1777.93747911	1823.94177694	-3551.11038653	412.98796777	2568.99621699
44.27000000	-203.91320118	4868.70192323	3331.24485414	420.52396512	514.55265901	1813.83992754	1864.89828041	-3880.89708150	454.72387388	2807.87327546
44.28000000	-386.36353784	5078.66823887	3429.76928756	352.35476265	426.81116817	1851.52025600	1907.95778210	-4228.62957217	498.75167566	3060.27247371
44.29000000	-578.05041311	5298.64332979	3532.25107866	280.85193583	334.16461957	1891.02073694	1953.17201595	-4594.77891831	545.13103391	3326.55989085
44.30000000	-779.19576836	5528.85771226	3638.76623457	205.93661714	236.48437707	1932.38364286	2000.59271591	-4979.81617966	593.92160941	3607.10160599
44.31000000	-990.02154494	5769.54190251	3749.39076243	127.52993907	133.64180455	1975.65124621	2050.27161591	-5384.21241596	645.18306295	3902.26369822
44.32000000	-1210.74968419	6020.92641682	3864.20066939	45.55303411	25.50826588	2020.86581948	2102.26044991	-5808.43868696	698.97505533	4212.41224666
44.33000000	-1441.60212748	6283.24177142	3983.27196258	-40.07296525	-88.04487509	2068.06963513	2156.61095184	-6252.96605241	755.35724734	4537.91333040
44.34000000	-1682.80081615	6556.71848259	4106.68064913	-129.42692653	-207.14625447	2117.30496565	2213.37485565	-6718.26557205	814.38929977	4879.13302856
44.35000000	-1934.56769155	6841.58706656	4234.50273619	-222.58771723	-331.92450840	2168.61408350	2272.60389528	-7204.80830564	876.13087342	5236.43742024
44.36000000	-2197.12469505	7138.07803959	4366.81423090	-319.63420487	-462.50827301	2222.03926116	2334.34980467	-7713.06531291	940.64162906	5610.19258454
44.37000000	-2470.69376798	7446.42191794	4503.69114039	-420.64525696	-599.02618443	2277.62277110	2398.66431777	-8243.50765362	1007.98122750	6000.76460057
44.38000000	-2755.49685171	7766.84921787	4645.20947180	-525.69974101	-741.60687879	2335.40688580	2465.59916852	-8796.60638750	1078.20932952	6408.51954744
44.39000000	-3051.75588759	8099.59045562	4791.44523228	-634.87652454	-890.37899222	2395.43387772	2535.20609086	-9372.83257432	1151.38559592	6833.82350425
44.40000000	-3359.69281697	8444.87614745	4942.47442895	-748.25447506	-1045.47116086	2457.74601936	2607.53681874	-9972.65727380	1227.56968749	7277.04255011
44.41000000	-3679.52958120	8802.93680961	5098.37306897	-865.91246008	-1207.01202083	2522.38558317	2682.64308610	-10596.55154571	1306.82126501	7738.54276412
44.42000000	-4011.48812163	9174.00295836	5259.21715946	-987.92934711	-1375.13020827	2589.39484163	2760.57662688	-11244.98644978	1389.19998929	8218.69022539
44.43000000	-4355.79037962	9558.30510995	5425.08270757	-1114.38400367	-1549.95435930	2658.81606721	2841.38917503	-11918.43304577	1474.76552111	8717.85101302
44.44000000	-4712.65829652	9956.07378064	5596.04572043	-1245.35529726	-1731.61311006	2730.69153240	2925.13246448	-12617.36239341	1563.57752127	9236.39120611
44.45000000	-5082.31381369	10367.53948668	5772.18220518	-1380.92209540	-1920.23509667	2805.06350965	3011.85822919	-13342.24555247	1655.69565055	9774.67688378
